<svg width="30" height="30" viewBox="0 0 30 30" fill="none" xmlns="http://www.w3.org/2000/svg">
<path d="M7.93916 3.80442L11.4664 7.83554C11.8496 8.2735 11.7794 8.94489 11.3138 9.29405L9.59169 10.5856C9.45774 10.6861 9.42561 10.8737 9.51848 11.013L10.2856 12.1638C12.4624 15.4289 15.3093 18.1933 18.6371 20.2732C18.9754 20.4846 19.4192 20.4018 19.6586 20.0827L20.2094 19.3483C20.8265 18.5254 22.0132 18.4013 22.7873 19.0786L26.1956 22.0608C26.6309 22.4418 26.6532 23.1115 26.2442 23.5205L23.4988 26.2659C23.0386 26.7261 22.3798 26.9389 21.744 26.7997C10.554 24.3496 5.13142 14.6563 3.39839 8.80254C3.11123 7.83259 3.43095 6.80434 4.14623 6.08906L6.47948 3.75582C6.88851 3.34678 7.55824 3.36908 7.93916 3.80442Z" fill="black" stroke="black" stroke-width="2"/>
</svg>
