<svg width="30" height="30" viewBox="0 0 30 30" fill="none" xmlns="http://www.w3.org/2000/svg">
<path d="M19.6111 24.4444C19.6111 25.8551 20.7534 27 22.1667 27C23.5773 27 24.7222 25.8551 24.7222 24.4444C24.7222 23.0312 23.5773 21.8889 22.1667 21.8889C20.7534 21.8889 19.6111 23.0312 19.6111 24.4444ZM6.83333 24.4444C6.83333 25.8551 7.97694 27 9.38889 27C10.7983 27 11.9444 25.8551 11.9444 24.4444C11.9444 23.0312 10.7983 21.8889 9.38889 21.8889C7.97694 21.8889 6.83333 23.0312 6.83333 24.4444ZM11.3656 18.2753L25.5081 14.235C25.7777 14.1571 26 13.8657 26 13.5833V6.55556H8.11111V4.51111C8.11111 4.23 7.87983 4 7.60128 4H3.50983C3.23 4 3 4.23 3 4.51111V6.55556H5.55556L7.99611 18.0006L8.11111 19.2056V21.3126C8.11111 21.5924 8.34111 21.8237 8.62222 21.8237H25.4889C25.77 21.8237 26 21.5912 26 21.3126V19.3333H11.6276C10.1581 19.3333 10.1274 18.6293 11.3656 18.2753Z" fill="black"/>
</svg>
