<svg width="24" height="20" viewBox="0 0 24 20" fill="none" xmlns="http://www.w3.org/2000/svg">
<path d="M12.0063 5.25C8.85635 5.25 6.28134 7.84999 6.28134 11.05C6.28134 14.25 8.85635 16.85 12.0063 16.85C15.1563 16.85 17.7314 14.25 17.7314 11.05C17.7314 7.84999 15.1813 5.25 12.0063 5.25ZM12.0063 14.875C9.95635 14.875 8.28134 13.175 8.28134 11.075C8.28134 8.97501 9.95635 7.27502 12.0063 7.27502C14.0563 7.27502 15.7314 8.97501 15.7314 11.075C15.7314 13.175 14.0563 14.875 12.0063 14.875ZM14.7813 11.3C14.7313 11.75 14.3563 12.05 13.9063 12.05C13.8563 12.05 13.8313 12.05 13.7813 12.05C13.3063 11.975 12.9563 11.55 13.0313 11.075C13.1313 10.35 12.2814 9.94999 12.2314 9.92499C11.8064 9.72499 11.6063 9.20002 11.8063 8.77502C12.0063 8.35002 12.5064 8.15001 12.9564 8.32501C13.7564 8.67501 15.0063 9.67499 14.7813 11.3ZM12.8564 12.4C13.0314 12.575 13.1563 12.85 13.1563 13.1C13.1563 13.35 13.0564 13.625 12.8564 13.8C12.6564 13.975 12.4063 14.1 12.1563 14.1C11.9063 14.1 11.6314 14 11.4564 13.8C11.2814 13.6 11.1563 13.35 11.1563 13.1C11.1563 12.825 11.2564 12.575 11.4564 12.4C11.6564 12.2 11.9063 12.1 12.1563 12.1C12.4063 12.1 12.6814 12.2 12.8564 12.4ZM22.5063 5H18.6563L17.5814 1C17.4564 0.575 17.0564 0.25 16.6064 0.25H7.38135C6.93135 0.25 6.53134 0.575 6.40634 1L5.33136 5H1.50635C0.956348 5 0.506348 5.42498 0.506348 5.97498V18.75C0.506348 19.3 0.956348 19.75 1.50635 19.75H22.5063C23.0563 19.75 23.5063 19.3 23.5063 18.75V5.97498C23.5063 5.42498 23.0563 5 22.5063 5ZM21.5063 17.75H2.50635V7H6.10635C6.55635 7 6.95636 6.675 7.08136 6.25L8.15634 2.25H15.8564L16.9313 6.25C17.0563 6.675 17.4563 7 17.9063 7H21.5063V17.75V17.75Z" fill="white"/>
</svg>
