<svg width="30" height="30" viewBox="0 0 30 30" fill="none" xmlns="http://www.w3.org/2000/svg">
<path d="M23.8064 11.275C23.7064 10.275 22.8564 9.5 21.8314 9.5H20.0064V9.04999C20.0064 6.12499 17.8564 3.75 15.0564 3.75H14.9564C12.1814 3.75 10.0064 6.12499 10.0064 9.04999V9.5H8.18137C7.15637 9.5 6.33139 10.275 6.20639 11.275L4.75638 25.125C4.73138 25.4 4.80638 25.7 5.00638 25.9C5.20638 26.1 5.45638 26.225 5.75638 26.225H24.2564C24.5314 26.225 24.8064 26.1 25.0064 25.9C25.2064 25.7 25.2814 25.4 25.2564 25.125L23.8064 11.275ZM12.0064 9.04999C12.0064 7.22499 13.2814 5.75 14.9564 5.75H15.0564C16.7314 5.75 18.0064 7.22499 18.0064 9.04999V9.5H12.0064V9.04999ZM6.85639 24.25L8.18137 11.5H21.7814L23.1064 24.25H6.85639Z" fill="white"/>
</svg>
