<svg width="30" height="30" viewBox="0 0 30 30" fill="none" xmlns="http://www.w3.org/2000/svg">
<path d="M26.3812 12.075C26.1562 11.325 25.7062 10.7251 25.0312 10.3751C24.1812 9.92506 23.1812 9.97503 22.4812 10.1L21.0062 4.95001C20.9062 4.60001 20.6312 4.32506 20.2812 4.25006C19.9312 4.17506 19.5562 4.27511 19.3062 4.55011C15.7312 8.55011 14.2562 9.52506 10.3062 11.2501L7.20619 12.1501C4.48119 12.9501 2.90619 15.8251 3.68119 18.5501C4.05619 19.8751 4.93118 21.0001 6.15618 21.6751C6.93118 22.1001 7.78119 22.325 8.63119 22.325C9.03119 22.325 9.4562 22.2751 9.8562 22.1751L10.1812 23.35C10.3562 23.975 10.7062 24.525 11.1562 24.975L11.6812 25.475C11.8812 25.65 12.1312 25.7501 12.3812 25.7501C12.6562 25.7501 12.9062 25.65 13.1062 25.45C13.4812 25.05 13.4812 24.4251 13.0562 24.0251L12.5312 23.5251C12.3312 23.3251 12.1812 23.0751 12.1062 22.8001L11.7812 21.6251L13.2312 21.2C17.3812 20.575 19.2562 20.625 24.3312 22.075C24.4312 22.1 24.5062 22.1251 24.6062 22.1251C24.8562 22.1251 25.1312 22.025 25.3062 21.825C25.5562 21.575 25.6562 21.2 25.5562 20.85L24.0812 15.725C24.7312 15.475 25.6062 15.025 26.1062 14.2C26.5062 13.575 26.6062 12.85 26.3812 12.075ZM7.15618 19.95C6.40618 19.55 5.88119 18.8501 5.63119 18.0501C5.15619 16.3501 6.13118 14.6 7.78118 14.1L10.0312 13.45L11.0562 17.075L11.7562 19.575L9.50619 20.225C8.73119 20.45 7.88118 20.35 7.15618 19.95ZM17.3312 18.85C16.2062 18.85 15.0812 18.9501 13.7562 19.1251L12.3062 14.0001L11.9562 12.7501C15.1562 11.3001 16.8562 10.175 19.6312 7.22503L23.1812 19.7C20.7812 19.1 19.0812 18.85 17.3312 18.85ZM24.4312 13.1751C24.2812 13.4501 23.9062 13.6501 23.5562 13.8001L23.0562 12.0501C23.4312 12.0001 23.8562 12.0001 24.1312 12.1501C24.2562 12.2251 24.3812 12.325 24.4812 12.6C24.5562 12.9 24.4812 13.0501 24.4312 13.1751ZM18.1062 11.5251C18.3812 11.9251 18.3062 12.4751 17.9062 12.7501C16.9812 13.4001 15.9312 13.9751 15.8812 14.0001C15.7562 14.0751 15.6062 14.1 15.4812 14.1C15.1562 14.1 14.8562 13.9251 14.7062 13.6251C14.4812 13.2001 14.6562 12.675 15.0812 12.45C15.0812 12.45 16.0812 11.925 16.8812 11.35C17.2562 11.025 17.8062 11.1251 18.1062 11.5251Z" fill="white"/>
</svg>
