<svg width="30" height="30" viewBox="0 0 30 30" fill="none" xmlns="http://www.w3.org/2000/svg">
<path d="M15.0064 17.7751C18.7064 17.7751 21.7314 14.75 21.7314 11.025C21.7314 7.30005 18.7064 4.27505 15.0064 4.27505C11.3064 4.27505 8.28138 7.30005 8.28138 11.025C8.28138 14.75 11.3064 17.7751 15.0064 17.7751ZM15.0064 6.25002C17.6064 6.25002 19.7314 8.37502 19.7314 11C19.7314 13.625 17.6064 15.75 15.0064 15.75C12.4064 15.75 10.2814 13.625 10.2814 11C10.2814 8.37502 12.4064 6.25002 15.0064 6.25002ZM18.1314 18.425C17.8064 18.325 17.4314 18.4 17.1814 18.625L15.0064 20.475L12.8314 18.625C12.5564 18.4 12.2064 18.325 11.8814 18.425C10.4814 18.875 3.50638 21.275 3.50638 24.75C3.50638 25.3 3.95638 25.75 4.50638 25.75H25.5064C26.0564 25.75 26.5064 25.3 26.5064 24.75C26.5064 21.275 19.5314 18.875 18.1314 18.425ZM6.03138 23.75C7.13138 22.575 9.78138 21.2751 11.9814 20.5251L14.3564 22.55C14.7314 22.875 15.2814 22.875 15.6564 22.55L18.0314 20.5251C20.2314 21.3001 22.8814 22.6 23.9814 23.75H6.03138Z" fill="white"/>
</svg>
