<svg width="30" height="30" viewBox="0 0 30 30" fill="none" xmlns="http://www.w3.org/2000/svg">
<path d="M26.5063 9.34998C26.5063 8.32498 25.6813 7.5 24.6563 7.5H5.33126C4.30626 7.5 3.48126 8.32498 3.48126 9.34998V20.675C3.48126 21.7 4.30626 22.525 5.33126 22.525H24.6563C25.6813 22.525 26.5063 21.7 26.5063 20.675V9.34998ZM24.5063 9.5V11.25H5.50626V9.5H24.5063ZM5.50626 20.5V14.25H24.5063V20.5H5.50626ZM22.6313 17.25C22.6313 17.8 22.1813 18.25 21.6313 18.25H16.8813C16.3313 18.25 15.8813 17.8 15.8813 17.25C15.8813 16.7 16.3313 16.25 16.8813 16.25H21.6313C22.1813 16.25 22.6313 16.7 22.6313 17.25Z" fill="white"/>
</svg>
