<svg width="24" height="22" viewBox="0 0 24 22" fill="none" xmlns="http://www.w3.org/2000/svg">
<path d="M10.5062 13.375C10.5062 12.9 10.1062 12.5 9.6312 12.5H6.3812C5.9062 12.5 5.5062 12.9 5.5062 13.375V16.625C5.5062 17.1 5.9062 17.5 6.3812 17.5H9.6312C10.1062 17.5 10.5062 17.1 10.5062 16.625V13.375ZM7.2562 14.25H8.7562V15.75H7.2562V14.25ZM23.2312 5.84998L21.0062 3.59998V1C21.0062 0.45 20.5562 0 19.9812 0H4.0062C3.4562 0 2.98121 0.45 2.98121 1V3.59998L0.756201 5.84998C0.581201 6.02498 0.481207 6.30005 0.481207 6.55005V9.09997C0.481207 9.64997 0.931207 10.025 1.48121 10.025H22.4812C23.0312 10.025 23.4812 9.67498 23.4812 9.09997V6.55005C23.5062 6.27505 23.4062 6.02498 23.2312 5.84998ZM19.0062 2V3.25H5.0062V2H19.0062ZM21.5062 8H2.5062V6.94995L4.5562 5H19.4562L21.5062 6.94995V8ZM22.0062 12.025V21C22.0062 21.55 21.5562 22 21.0062 22H17.5812C17.0312 22 16.5812 21.6 16.5812 21.05V15.75H14.2562V21C14.2562 21.55 13.7812 22 13.2312 22H3.0062C2.4562 22 1.98121 21.55 1.98121 21V12.025C1.98121 11.475 2.43121 11.025 2.98121 11.025C3.53121 11.025 3.98121 11.475 3.98121 12.025V20H12.2312V14.65C12.2312 14.1 12.6562 13.75 13.2062 13.75H17.5312C18.0812 13.75 18.4562 14.1 18.4562 14.65V20H19.9562V12.025C19.9562 11.475 20.4062 11.025 20.9562 11.025C21.5062 11.025 22.0062 11.475 22.0062 12.025Z" fill="white"/>
</svg>
