<svg width="30" height="30" viewBox="0 0 30 30" fill="none" xmlns="http://www.w3.org/2000/svg">
<path fill-rule="evenodd" clip-rule="evenodd" d="M15.9968 3.58415C15.9968 3.03187 15.549 2.58415 14.9968 2.58415C14.4445 2.58415 13.9968 3.03187 13.9968 3.58415V17.2414C13.9968 17.7937 14.4445 18.2414 14.9968 18.2414C15.549 18.2414 15.9968 17.7937 15.9968 17.2414V3.58415ZM9.12729 6.37139C9.58518 6.06258 9.70604 5.44106 9.39724 4.98317C9.08844 4.52529 8.46691 4.40443 8.00903 4.71323C5.8264 6.18521 4.16635 8.31094 3.2672 10.7852C2.36806 13.2595 2.27608 15.9551 3.00447 18.4849C3.73286 21.0147 5.24415 23.2487 7.32136 24.866C9.39857 26.4833 11.9348 27.4009 14.566 27.4868C17.1972 27.5728 19.788 26.8228 21.9663 25.3445C24.1447 23.8663 25.7986 21.7357 26.6906 19.2589C27.5826 16.782 27.6668 14.0862 26.9311 11.5585C26.1954 9.03075 24.6776 6.80118 22.5957 5.18986C22.159 4.85183 21.5309 4.93185 21.1929 5.3686C20.8548 5.80535 20.9349 6.43344 21.3716 6.77148C23.1192 8.12404 24.3932 9.99558 25.0107 12.1174C25.6283 14.2392 25.5576 16.5021 24.8089 18.5812C24.0601 20.6603 22.6718 22.4487 20.8433 23.6896C19.0147 24.9305 16.84 25.5601 14.6313 25.4879C12.4227 25.4157 10.2937 24.6456 8.55006 23.2879C6.80642 21.9303 5.53781 20.0551 4.92639 17.9315C4.31497 15.808 4.39218 13.5453 5.14693 11.4683C5.90169 9.39136 7.29517 7.60698 9.12729 6.37139Z" fill="white"/>
</svg>
