<svg width="30" height="30" viewBox="0 0 30 30" fill="none" xmlns="http://www.w3.org/2000/svg">
<path d="M26.0562 7.19999L20.7813 4.725C20.7563 4.725 20.7563 4.72499 20.7563 4.69999C20.7313 4.67499 20.6813 4.675 20.6563 4.675C20.6313 4.675 20.5812 4.64999 20.5562 4.64999C20.5312 4.64999 20.4813 4.64999 20.4563 4.64999C20.4313 4.64999 20.3813 4.64999 20.3563 4.64999C20.3313 4.64999 20.2813 4.65 20.2563 4.675C20.2313 4.675 20.1813 4.69999 20.1563 4.69999C20.1313 4.69999 20.1313 4.7 20.1063 4.725L15.1812 7.02499L10.2563 4.725C10.2313 4.725 10.2313 4.72499 10.2063 4.69999C10.1813 4.67499 10.1313 4.675 10.1063 4.675C10.0813 4.675 10.0313 4.64999 10.0063 4.64999C9.98126 4.64999 9.93126 4.64999 9.90626 4.64999C9.88126 4.64999 9.83125 4.64999 9.80625 4.64999C9.78125 4.64999 9.73127 4.65 9.70627 4.675C9.68127 4.675 9.63127 4.69999 9.60627 4.69999C9.58127 4.69999 9.58125 4.7 9.55625 4.725L4.18125 7.19999C3.88125 7.34999 3.60627 7.64999 3.60627 7.99999V24.25C3.60627 24.55 3.83127 24.825 4.08127 25C4.23127 25.1 4.43127 25.15 4.58127 25.15C4.70627 25.15 4.85627 25.125 4.98127 25.075L9.93125 22.775L14.8563 25.075C14.9063 25.1 14.9563 25.125 15.0063 25.125C15.0313 25.125 15.0312 25.125 15.0562 25.125C15.1062 25.125 15.1563 25.15 15.2313 25.15C15.2813 25.15 15.3563 25.15 15.4063 25.125C15.4313 25.125 15.4313 25.125 15.4563 25.125C15.5063 25.1 15.5563 25.1 15.6063 25.075L20.5313 22.775L25.4563 25.075C25.5813 25.125 25.7063 25.15 25.8313 25.15C26.0063 25.15 26.1063 25.1 26.2313 25C26.4813 24.825 26.5813 24.55 26.5813 24.25V7.99999C26.5063 7.64999 26.3813 7.34999 26.0562 7.19999ZM14.0063 22.875L10.7563 21.225V6.925L14.0063 8.57499V22.875ZM5.25626 8.57499L8.75626 6.925V21.225L5.25626 22.875V8.57499ZM16.0063 8.57499L19.5063 6.925V21.225L16.0063 22.875V8.57499ZM24.7563 22.875L21.2563 21.225V6.925L24.7563 8.57499V22.875Z" fill="white"/>
</svg>
