<svg width="30" height="30" viewBox="0 0 30 30" fill="none" xmlns="http://www.w3.org/2000/svg">
<path d="M26.2063 17.575L23.0562 20.7C22.8562 20.9 22.6063 21 22.3563 21C22.1063 21 21.8313 20.9 21.6563 20.7L18.5063 17.575C18.1063 17.175 18.1063 16.55 18.4813 16.175C18.8813 15.775 19.4813 15.775 19.8563 16.175L21.2313 17.6V11H12.4563C11.9063 11 11.4563 10.55 11.4563 9.99999C11.4563 9.44999 11.9063 8.99999 12.4563 8.99999H22.3313C22.8813 8.99999 23.2313 9.42499 23.2313 9.97499V17.575L24.7313 16.15C25.1313 15.75 25.8063 15.775 26.2063 16.15C26.6063 16.55 26.6063 17.175 26.2063 17.575ZM17.5313 19H8.75626V12.375L10.1313 13.8C10.3313 14 10.5563 14.1 10.8063 14.1C11.0563 14.1 11.3063 14 11.5063 13.8C11.9063 13.4 11.8813 12.775 11.5063 12.4L8.35627 9.275C7.95627 8.9 7.33125 8.9 6.93125 9.275L3.78126 12.4C3.38126 12.8 3.38126 13.425 3.78126 13.8C4.18126 14.2 4.85626 14.2 5.25626 13.8L6.75626 12.375V19.975C6.75626 20.525 7.08126 21 7.65626 21H17.5313C18.0813 21 18.5313 20.55 18.5313 20C18.5313 19.45 18.0813 19 17.5313 19Z" fill="white"/>
</svg>
