<svg width="30" height="30" viewBox="0 0 30 30" fill="none" xmlns="http://www.w3.org/2000/svg">
<path d="M26.5063 14.9V19.325C26.5063 19.925 26.1313 20.425 25.5063 20.425C24.8813 20.425 24.5063 19.925 24.5063 19.325V16H7.43125L9.98127 18.525C10.4063 18.95 10.3812 19.65 9.93125 20.1C9.70625 20.325 9.40627 20.425 9.10627 20.425C8.83127 20.425 8.53125 20.325 8.30625 20.1L3.80625 15.675C3.60625 15.475 3.48127 15.175 3.48127 14.9C3.48127 14.6 3.60625 14.325 3.80625 14.125L8.28126 9.69999C8.70626 9.27499 9.43127 9.27499 9.85627 9.69999C10.2813 10.125 10.2813 10.825 9.83127 11.275L7.25626 13.8H25.3062C25.6062 13.8 25.9313 13.925 26.1313 14.125C26.3813 14.325 26.5063 14.625 26.5063 14.9Z" fill="white"/>
</svg>
