<svg width="30" height="30" viewBox="0 0 30 30" fill="none" xmlns="http://www.w3.org/2000/svg">
<path d="M26.4564 10.075L23.7814 18.525C23.5814 19.125 23.0564 19.525 22.4314 19.525H12.1064C11.5064 19.525 10.9314 19.15 10.7314 18.6L6.80638 8.02505H4.50638C3.95638 8.02505 3.50638 7.57505 3.50638 7.02505C3.50638 6.47505 3.95638 6.02505 4.50638 6.02505H7.48138C7.90638 6.02505 8.28138 6.30004 8.43138 6.70004L12.5064 17.5H22.0064L24.1314 10.75H12.3564C11.8064 10.75 11.3564 10.3 11.3564 9.75002C11.3564 9.20002 11.8064 8.75002 12.3564 8.75002H25.5064C25.8314 8.75002 26.1314 8.92501 26.3064 9.17501C26.5064 9.42501 26.5564 9.77504 26.4564 10.075ZM12.6064 20.825C12.1814 20.825 11.7564 21 11.4564 21.3C11.1564 21.6 10.9814 22.025 10.9814 22.45C10.9814 22.875 11.1564 23.3 11.4564 23.6C11.7564 23.9 12.1814 24.075 12.6064 24.075C13.0314 24.075 13.4564 23.9 13.7564 23.6C14.0564 23.3 14.2314 22.875 14.2314 22.45C14.2314 22.025 14.0564 21.6 13.7564 21.3C13.4564 21 13.0314 20.825 12.6064 20.825ZM21.5814 20.825C21.1564 20.825 20.7314 21 20.4314 21.3C20.1314 21.6 19.9564 22.025 19.9564 22.45C19.9564 22.875 20.1314 23.3 20.4314 23.6C20.7314 23.9 21.1564 24.075 21.5814 24.075C22.0064 24.075 22.4314 23.9 22.7314 23.6C23.0314 23.3 23.2064 22.875 23.2064 22.45C23.2064 22.025 23.0314 21.6 22.7314 21.3C22.4314 21 22.0064 20.825 21.5814 20.825Z" fill="white"/>
</svg>
