<svg width="30" height="30" viewBox="0 0 30 30" fill="none" xmlns="http://www.w3.org/2000/svg">
<path d="M25.6315 6.62498C25.6065 6.59998 25.6065 6.59999 25.5815 6.57499L22.9065 4.22496C22.5315 3.87496 22.0065 3.69998 21.4565 3.74998C20.9565 3.79998 20.5065 3.99996 20.1565 4.34996C20.1315 4.37496 20.1065 4.39997 20.0815 4.42497L17.4315 7.74998C16.7315 8.49998 16.7565 9.64998 17.4815 10.375C17.5315 10.425 17.5815 10.475 17.6315 10.5L18.9815 11.4C18.8815 11.875 18.1815 13.225 15.7065 15.7C13.2315 18.175 11.8815 18.875 11.4065 18.975L10.5065 17.625C10.4815 17.575 10.4315 17.525 10.3815 17.475C9.65652 16.75 8.50652 16.75 7.75652 17.425L4.43152 20.075C4.40652 20.1 4.38152 20.125 4.35652 20.15C3.60652 20.9 3.55652 22.15 4.23152 22.875L6.58152 25.55C6.60652 25.575 6.60652 25.575 6.63152 25.6C7.08152 26.05 7.78152 26.225 8.55652 26.225C9.93152 26.225 11.5065 25.675 12.3315 25.35C13.9315 24.725 17.0565 23.2 20.1565 20.1C22.4565 17.8 24.3065 15.025 25.4065 12.275C25.8815 11.025 26.9315 7.92498 25.6315 6.62498ZM18.7315 18.725C14.1065 23.35 8.90651 24.625 8.03151 24.175L5.75652 21.575L9.00652 19L9.88152 20.325C9.90652 20.35 9.90652 20.375 9.93152 20.4C10.2315 20.775 10.6565 20.975 11.1565 21C11.6315 21.025 13.1065 21.1 17.0815 17.125C18.0565 16.15 21.0565 13.15 20.9565 11.2C20.9315 10.7 20.7065 10.275 20.3565 9.97496C20.3315 9.94996 20.3065 9.92497 20.2815 9.92497L18.9565 9.04997L21.5315 5.79997L24.1315 8.07499C24.6315 8.89999 23.3565 14.1 18.7315 18.725Z" fill="white"/>
</svg>
