<svg width="30" height="30" viewBox="0 0 30 30" fill="none" xmlns="http://www.w3.org/2000/svg">
<path d="M25.7562 14.2L25.7312 20.525C25.7312 21.075 25.2812 21.5 24.7312 21.5C24.1812 21.5 23.7312 21.075 23.7312 20.525L23.7562 14.2C23.7562 11.875 22.8562 9.7 21.2062 8.05C19.5562 6.4 17.3562 5.5 15.0312 5.5H15.0062C10.2062 5.5 6.28123 9.375 6.25623 14.15V20.5C6.25623 21.05 5.80623 21.5 5.25623 21.5C4.70623 21.5 4.25623 21.05 4.25623 20.5L4.28122 14.15C4.30622 8.275 9.10622 3.5 15.0312 3.5H15.0562C17.9312 3.5 20.6312 4.625 22.6312 6.65C24.6562 8.675 25.7562 11.35 25.7562 14.2ZM12.6562 14.725C12.8312 14.9 12.9062 15.075 12.9062 15.3L12.8812 25.425C12.8812 25.9 12.4812 26.25 12.0062 26.25C8.70623 26.25 7.63123 24.35 7.50623 23.3C7.50623 23.275 7.50623 23.3 7.50623 23.25L7.53122 17.55C7.53122 17.525 7.53122 17.5 7.53122 17.45C7.65622 16.425 8.75622 14.475 12.0312 14.475H12.0562C12.2562 14.5 12.4812 14.55 12.6562 14.725ZM11.1562 16.275C9.58122 16.525 9.30623 17.45 9.25623 17.625L9.23123 23.2C9.28123 23.4 9.55623 24.3 11.1312 24.55L11.1562 16.275ZM22.5312 17.55L22.5562 23.225C22.5562 23.25 22.5562 23.275 22.5562 23.3C22.4312 24.325 21.3562 26.25 18.0562 26.25C17.5812 26.25 17.1812 25.925 17.1812 25.425L17.1562 15.35C17.1562 15.125 17.2562 14.9 17.4062 14.75C17.5812 14.575 17.7812 14.5 18.0312 14.5H18.0562C21.3312 14.5 22.4312 16.425 22.5562 17.475C22.5312 17.5 22.5312 17.5 22.5312 17.55ZM20.8062 23.2L20.7812 17.625C20.7312 17.425 20.4562 16.525 18.8812 16.275L18.9062 24.55C20.5062 24.275 20.7562 23.375 20.8062 23.2Z" fill="white"/>
</svg>
