<svg width="30" height="30" viewBox="0 0 30 30" fill="none" xmlns="http://www.w3.org/2000/svg">
<path d="M23.5064 5C23.5064 4.45 23.0564 4 22.5064 4H7.50638C6.95638 4 6.50638 4.45 6.50638 5V25C6.50638 25.55 6.95638 26 7.50638 26H22.5064C23.0564 26 23.5064 25.55 23.5064 25V5ZM21.5064 24H8.50638V6H21.5064V24ZM10.6314 19.75C10.6314 19.2 11.0814 18.75 11.6314 18.75H18.3814C18.9314 18.75 19.3814 19.2 19.3814 19.75C19.3814 20.3 18.9314 20.75 18.3814 20.75H11.6314C11.0814 20.75 10.6314 20.3 10.6314 19.75ZM10.7814 15C10.7814 14.45 11.2314 14 11.7814 14H18.3564C18.9064 14 19.3564 14.45 19.3564 15C19.3564 15.55 18.9064 16 18.3564 16H11.7814C11.2314 16 10.7814 15.55 10.7814 15ZM10.7814 10.25C10.7814 9.7 11.2314 9.25 11.7814 9.25H18.3564C18.9064 9.25 19.3564 9.7 19.3564 10.25C19.3564 10.8 18.9064 11.25 18.3564 11.25H11.7814C11.2314 11.25 10.7814 10.8 10.7814 10.25Z" fill="white"/>
</svg>
