<svg width="30" height="30" viewBox="0 0 30 30" fill="none" xmlns="http://www.w3.org/2000/svg">
<path d="M28 12.6923L22.1826 5.37755C21.9929 5.139 21.7047 5 21.4 5H8.60004C8.29525 5 8.0071 5.139 7.81738 5.37755L2 12.6923M28 12.6923H22.2983C22.0321 12.6923 21.7768 12.7985 21.5891 12.9873L18.3521 16.2435C18.1644 16.4323 17.9091 16.5385 17.6429 16.5385H12.4236C12.1188 16.5385 11.8306 16.3995 11.6409 16.1609L9.18262 13.0699C8.9929 12.8313 8.70475 12.6923 8.39996 12.6923H2M28 12.6923V24C28 24.5523 27.5523 25 27 25H3C2.44772 25 2 24.5523 2 24V12.6923" stroke="#FDD002" stroke-width="1.3" stroke-linecap="round" stroke-linejoin="round"/>
</svg>
