<svg width="30" height="30" viewBox="0 0 30 30" fill="none" xmlns="http://www.w3.org/2000/svg">
<path d="M25.1814 9C24.1564 6.725 22.0064 5.25 19.6814 5.25C17.3564 5.25 15.8564 6.275 14.9814 7.375C14.1064 6.275 12.6064 5.25 10.2814 5.25C7.95637 5.25 5.80637 6.725 4.78137 9C3.73137 11.375 4.18137 14 6.00637 16.05C10.3814 20.975 14.2564 24.45 14.3064 24.475C14.5064 24.65 14.7314 24.725 14.9814 24.725C15.2314 24.725 15.4564 24.65 15.6564 24.475C15.7064 24.45 19.5564 20.95 23.9564 16.05C25.8064 14 26.2564 11.375 25.1814 9ZM22.4814 14.725C19.2314 18.35 16.2814 21.2 15.0064 22.375C13.7314 21.175 10.7814 18.35 7.53137 14.7C6.23137 13.225 5.90637 11.45 6.63137 9.77499C7.30637 8.24999 8.78137 7.20001 10.3064 7.20001C13.2814 7.20001 13.9564 9.42501 14.0314 9.70001C14.1314 10.15 14.5314 10.45 14.9814 10.45C15.4314 10.45 15.8314 10.125 15.9564 9.70001C16.0314 9.45001 16.7064 7.20001 19.6814 7.20001C21.1814 7.20001 22.6564 8.22499 23.3564 9.77499C24.1064 11.475 23.7814 13.25 22.4814 14.725ZM22.2314 11.825C22.2564 12.3 21.9064 12.725 21.4064 12.75C21.3814 12.75 21.3564 12.75 21.3564 12.75C20.9064 12.75 20.5064 12.4 20.4814 11.925C20.3814 10.5 19.4564 10.275 19.2814 10.25C18.8064 10.175 18.4814 9.74999 18.5314 9.27499C18.6064 8.79999 19.0564 8.47499 19.5314 8.52499C20.4064 8.64999 22.0814 9.50001 22.2314 11.825ZM21.0314 13.275C21.2314 13.475 21.3314 13.725 21.3314 13.975C21.3314 14.25 21.2314 14.5 21.0314 14.675C20.8564 14.875 20.5814 14.975 20.3314 14.975C20.0814 14.975 19.8064 14.875 19.6314 14.675C19.4314 14.5 19.3314 14.225 19.3314 13.975C19.3314 13.725 19.4314 13.45 19.6314 13.275C19.8064 13.1 20.0814 12.975 20.3314 12.975C20.5814 13 20.8314 13.1 21.0314 13.275Z" fill="white"/>
</svg>
